<svg width="98" height="103" viewBox="0 0 98 103" fill="none" xmlns="http://www.w3.org/2000/svg">
<rect x="2.73105" y="4.55176" width="92.9571" height="98.0952" rx="46.4785" fill="#D9D9D9"/>
<g clip-path="url(#clip0_15_228)">
<path fill-rule="evenodd" clip-rule="evenodd" d="M48.8025 0C21.8391 0 0 23.0462 0 51.5C0 74.2887 13.9697 93.5369 33.3687 100.361C35.8088 100.811 36.7238 99.2663 36.7238 97.9144C36.7238 96.6913 36.6628 92.6356 36.6628 88.3225C24.4012 90.7044 21.2291 85.1681 20.253 82.2712C19.704 80.7906 17.3249 76.22 15.2508 74.9969C13.5427 74.0312 11.1026 71.6494 15.1898 71.585C19.033 71.5206 21.7781 75.3187 22.6931 76.8637C27.0854 84.6531 34.1007 82.4644 36.9069 81.1125C37.3339 77.765 38.6149 75.5119 40.018 74.2244C29.1595 72.9369 17.8129 68.495 17.8129 48.7962C17.8129 43.1956 19.704 38.5606 22.8151 34.9556C22.3271 33.6681 20.619 28.3894 23.3032 21.3081C23.3032 21.3081 27.3904 19.9563 36.7238 26.5869C40.628 25.4281 44.7763 24.8487 48.9245 24.8487C53.0727 24.8487 57.2209 25.4281 61.1251 26.5869C70.4585 19.8919 74.5458 21.3081 74.5458 21.3081C77.2299 28.3894 75.5218 33.6681 75.0338 34.9556C78.1449 38.5606 80.036 43.1312 80.036 48.7962C80.036 68.5594 68.6285 72.9369 57.7699 74.2244C59.539 75.8337 61.0641 78.9238 61.0641 83.7519C61.0641 90.64 61.0031 96.1763 61.0031 97.9144C61.0031 99.2663 61.9181 100.876 64.3582 100.361C83.6352 93.5369 97.6049 74.2244 97.6049 51.5C97.6049 23.0462 75.7658 0 48.8025 0Z" fill="#1B1F23"/>
</g>
<defs>
<clipPath id="clip0_15_228">
<rect width="97.6049" height="103" fill="white"/>
</clipPath>
</defs>
</svg>
